<svg xmlns="http://www.w3.org/2000/svg" xmlns:xlink="http://www.w3.org/1999/xlink" width="374" height="374" viewBox="0 0 374 374">
  <defs>
    <clipPath id="clip-path">
      <rect id="長方形_5" data-name="長方形 5" width="360.831" height="360.831" fill="none"/>
    </clipPath>
  </defs>
  <g id="MAP" transform="translate(-916.76 -75.312)">
    <g id="グループ_20" data-name="グループ 20" transform="translate(916.76 75.312)">
      <path id="パス_128" data-name="パス 128" d="M0,0H374V374H0Z" transform="translate(0 0)" fill="#5b714e" opacity="0.7"/>
      <g id="グループ_5" data-name="グループ 5" transform="translate(4.609 4.609)">
        <g id="グループ_4" data-name="グループ 4" clip-path="url(#clip-path)">
          <g id="グループ_1" data-name="グループ 1" transform="translate(-30.947 -24.652)">
            <path id="パス_1" data-name="パス 1" d="M1059.464,188.312c-9.362,0-23.7,17.109-23.7,38.19V327.095l35.556.13v-25.66h5.268v25.678l39.507.145V188.679l-56.627-.367Z" transform="translate(-852.711 -19.459)" fill="none"/>
            <path id="パス_2" data-name="パス 2" d="M932.26,226.312v88.244l52.649.192,28.311-88.436Z" transform="translate(-885.51 -7.417)" fill="none"/>
            <path id="パス_3" data-name="パス 3" d="M1104.76,247.468h48.725V188.96l-48.725-.317Z" transform="translate(-830.845 -19.354)" fill="none"/>
            <path id="パス_4" data-name="パス 4" d="M1031.514,206.246c-19.977-5.031-33.4-46.5-39.508-96.934H932.26V252.854h84.333Z" transform="translate(-885.51 -44.494)" fill="none"/>
            <line id="線_1" data-name="線 1" x1="35.556" y1="0.13" transform="translate(183.049 307.636)" fill="#f3f3f3"/>
            <path id="パス_5" data-name="パス 5" d="M929.784,293.312l-.039,10.535,3.312.012V293.323Z" transform="translate(-886.307 13.815)" fill="#f3f3f3"/>
            <path id="パス_7" data-name="パス 7" d="M1038.295,299.783v-6.076l-10.535-.038v6.114Z" transform="translate(-855.246 13.929)" fill="#f3f3f3"/>
            <path id="パス_8" data-name="パス 8" d="M983.283,111.213v-7.9h-6.33q.415,3.982.889,7.9Z" transform="translate(-871.347 -46.396)" fill="#f3f3f3"/>
            <rect id="長方形_2" data-name="長方形 2" width="3" height="11" transform="translate(271.338 228.043)" fill="#f3f3f3"/>
            <line id="線_2" data-name="線 2" x2="7.901" y2="0.051" transform="translate(322.64 169.606)" fill="#f3f3f3"/>
            <path id="パス_9" data-name="パス 9" d="M1306.283,232.9l.07-10.535-135.678-.881V142.03h130.373V131.494H1170.675V63.016H1160.14v158.4l-56.593-.367h-.034c-17.8,0-33.652,23.282-34.213,47.408l-.026,1.317V367.69l-62.066-.227,97.37-304.158-10.034-3.213L1046,211.75c-6.484-.957-15.877-12.333-23.828-41.9-7.837-29.148-12.154-68.026-12.154-109.47H999.478a551.544,551.544,0,0,0,2.888,56.627H943.51V60.382h-6.584v56.627h-27v7.9h27V268.452H896.76v10.535h40.166V459.4h6.584V377.767l49.28.179-25.984,81.167,10.033,3.212,27-84.338,156.3.57v83.48h10.535V378.6l130.353.477.038-10.535-130.392-.477V301.375h130.373V290.839H1227.3V232.382ZM943.51,124.91h59.745c6.11,50.439,19.531,91.9,39.508,96.934l-14.921,46.608H943.51Zm52.65,242.513-52.65-.191V278.987h80.96Zm124.474.454V342.2h-5.268v25.66l-35.556-.13V269.769c0-21.081,14.342-38.19,23.7-38.19h0l56.627.367V368.022Zm98.768-77.037h-48.725V232.015l48.725.316Z" transform="translate(-896.76 -60.092)" fill="#f3f3f3"/>
            <path id="パス_10" data-name="パス 10" d="M1062.76,293.8" transform="translate(-844.154 13.969)" fill="#f3f3f3"/>
          </g>
          <g id="駅_集合体" data-name="駅　集合体" transform="translate(60.127 -30.362)">
            <rect id="長方形_3" data-name="長方形 3" width="422.733" height="9.217" transform="matrix(0.302, -0.953, 0.953, 0.302, 0, 402.966)" fill="#333"/>
            <g id="グループ_2" data-name="グループ 2" transform="translate(55.97 76.552)">
              <rect id="長方形_4" data-name="長方形 4" width="31.962" height="116.141" transform="translate(36.054 0.815) rotate(17.663)" fill="#f3f3f3"/>
              <path id="パス_11" data-name="パス 11" d="M1040.11,235.879l-31.691-10.09,35.633-111.9,31.691,10.091Zm-30.061-10.933,29.218,9.3,34.845-109.431-29.218-9.3Z" transform="translate(-1008.419 -113.887)" fill="#333"/>
            </g>
            <g id="グループ_3" data-name="グループ 3" transform="translate(77.451 108.607)">
              <path id="パス_12" data-name="パス 12" d="M1038.426,150.632a24.447,24.447,0,0,0-1.178-2.231l-1.218,3.822-1.084-.344,1.256-3.944a12.7,12.7,0,0,1-3.434,2.09,4.95,4.95,0,0,0-.494-1.052,11.1,11.1,0,0,0,4.1-2.423l-2.694-.859.3-.947,2.935.934.5-1.58-2.98-.948.3-.949,6.984,2.224-.3.947-2.92-.928-.5,1.579,2.8.893-.3.947-2.8-.89-.115.361c.437.6,1.517,2.257,1.762,2.684Zm3.907-8.734-6.591-2.1.3-.932,2.768.881.485-1.52,1.084.345-.483,1.521,2.738.872Zm-5.884.83a9.017,9.017,0,0,0,.1-2.356l.946.053a8.81,8.81,0,0,1-.033,2.344Zm11.563,4.923-1.687-.536-2.4,7.554-1.1-.35,2.4-7.554-2.243-.714-.12.375c-.714,2.243-1.958,5.161-4.731,6.582a2.966,2.966,0,0,0-.547-1.035c2.5-1.258,3.544-3.8,4.215-5.9l1.666-5.237.732.515a21.49,21.49,0,0,0,4.6.038l.639,1.114a26.132,26.132,0,0,1-5.261-.183l-.853,2.679,5.027,1.6ZM1039,143.273a13.232,13.232,0,0,0,1.447-1.944l.945.566a23.032,23.032,0,0,1-1.553,1.859Z" transform="translate(-1022.341 -138.228)" fill="#5b714e"/>
              <path id="パス_13" data-name="パス 13" d="M1040.422,167.138c.452.144.675-.3,1.434-2.527a3.711,3.711,0,0,0,.876.842c-.889,2.485-1.409,3.18-2.554,2.817l-1.6-.508c-1.1-.349-1.339-.84-.9-2.224l2.366-7.435L1036.6,157a19.459,19.459,0,0,1-1.805,3.486,20.477,20.477,0,0,1,1.907,2.862l-1.131.633a18.625,18.625,0,0,0-1.542-2.5,9.122,9.122,0,0,1-5.825,3.25,3.6,3.6,0,0,0-.535-1.133,8.364,8.364,0,0,0,5.622-3.132c-.718-.924-1.5-1.853-2.228-2.632l1.013-.523c.621.645,1.3,1.391,1.927,2.172a17.059,17.059,0,0,0,1.439-2.856l-4.229-1.346.35-1.1,4.3,1.371c.383-1.04.722-2.108,1.052-3.147l1.159.37c-.331,1.038-.685,2.1-1.065,3.141l4.545,1.449-2.722,8.547c-.177.558-.13.672.275.8Z" transform="translate(-1023.799 -133.732)" fill="#5b714e"/>
              <path id="パス_14" data-name="パス 14" d="M1038.291,176.646l-6.2-1.974-1.434,4.5c-.238.753-.545,1.036-1.157,1.04a11.747,11.747,0,0,1-3.028-.749,5.629,5.629,0,0,0-.117-1.3c1.188.429,2.3.784,2.623.869s.45.043.536-.228l1.433-4.5-6.216-1.978.356-1.113,6.216,1.977.766-2.407.707.225a20.021,20.021,0,0,0,3.781-1.15l-8.473-2.7.345-1.082,9.646,3.071.29.026.618.876a23.847,23.847,0,0,1-6.068,2.029l-.469,1.476,6.2,1.974Z" transform="translate(-1024.731 -129.402)" fill="#5b714e"/>
            </g>
            <g id="西口" transform="translate(57.702 118.54)">
              <path id="パス_15" data-name="パス 15" d="M1017.6,147.686l-.346,1.082,1.971.629-1.5,4.695-.564-.18.137-.429-4.859-1.554-.146.46-.542-.174,1.51-4.722,1.782.57.348-1.084-2.107-.673.173-.535,6.558,2.1-.17.536Zm-.138,5.278.518-1.617a.5.5,0,0,1-.661.2l-.744-.237c-.558-.179-.632-.361-.46-.9l.416-1.3-1.106-.354-.113.354a2.287,2.287,0,0,1-2,1.649,1.852,1.852,0,0,0-.273-.494,1.868,1.868,0,0,0,1.75-1.33l.111-.346-1.264-.4-1.032,3.228Zm-.417-5.456-1.106-.354-.346,1.084,1.106.353Zm1.45,2.228-1.437-.458-.416,1.3c-.051.166-.032.2.165.261l.6.192c.165.054.216-.005.392-.5a1.518,1.518,0,0,0,.341.307Z" transform="translate(-1009.096 -145.771)" fill="#f3f3f3"/>
              <path id="パス_16" data-name="パス 16" d="M1017.2,154.754l-1.875,5.867-.594-.19.192-.6-4.423-1.416-.2.641-.566-.18,1.888-5.9Zm-2.1,4.512,1.325-4.144-4.423-1.414-1.325,4.146Z" transform="translate(-1009.734 -143.489)" fill="#f3f3f3"/>
            </g>
            <g id="東口" transform="translate(107.67 134.493)">
              <path id="パス_17" data-name="パス 17" d="M1054.174,163.054a7.623,7.623,0,0,0,2.179,2.546,1.969,1.969,0,0,0-.547.357,8.388,8.388,0,0,1-2.174-2.845l-.655,2.046-.564-.18.647-2.024a8.262,8.262,0,0,1-3.349,1.036,2.4,2.4,0,0,0-.242-.591,7.6,7.6,0,0,0,3.2-.827l-1.819-.581.875-2.738,2.286.731.2-.633-2.941-.94.168-.525,2.941.94.227-.706.565.179-.226.706,3.016.965-.168.527-3.016-.964-.2.631,2.415.773-.876,2.738Zm-2.644-1.326,1.745.558.235-.731-1.745-.558Zm.366-1.143,1.745.556.229-.714-1.746-.557Zm4.027,1.742-1.85-.591-.233.73,1.85.593Zm-1.491-1.72-.228.715,1.852.591.228-.714Z" transform="translate(-1047.11 -157.885)" fill="#f3f3f3"/>
              <path id="パス_18" data-name="パス 18" d="M1055.147,166.692l-1.876,5.867-.594-.191.191-.6-4.422-1.414-.2.64-.564-.179,1.887-5.906Zm-2.1,4.51,1.325-4.144-4.423-1.413-1.325,4.144Z" transform="translate(-1047.678 -155.659)" fill="#f3f3f3"/>
            </g>
          </g>
        </g>
      </g>
      <g id="グループ_6" data-name="グループ 6" transform="translate(234.362 288.837)">
        <path id="パス_19" data-name="パス 19" d="M1107.005,294.643h-8.711a3.568,3.568,0,1,0,0,7.136h8.711a3.568,3.568,0,1,0,0-7.136Zm0,6.3h-8.711a2.729,2.729,0,1,1,0-5.459h8.711a2.729,2.729,0,0,1,0,5.459Z" transform="translate(-1094.725 -294.643)" fill="#333"/>
        <path id="パス_20" data-name="パス 20" d="M1104.51,296a1.785,1.785,0,1,0,1.785,1.784A1.785,1.785,0,0,0,1104.51,296Z" transform="translate(-1092.19 -294.214)" fill="#333"/>
        <path id="パス_21" data-name="パス 21" d="M1097.835,296a1.785,1.785,0,1,0,1.786,1.784A1.785,1.785,0,0,0,1097.835,296Z" transform="translate(-1094.305 -294.214)" fill="#333"/>
        <path id="パス_22" data-name="パス 22" d="M1101.171,296a1.785,1.785,0,1,0,1.786,1.784A1.785,1.785,0,0,0,1101.171,296Z" transform="translate(-1093.248 -294.214)" fill="#333"/>
      </g>
      <g id="グループ_7" data-name="グループ 7" transform="translate(92.36 162.092)">
        <path id="パス_23" data-name="パス 23" d="M987.776,208.191v1.2a.275.275,0,0,0,.275.274h1.629a.274.274,0,0,0,.274-.274v-.839h-.774A2.877,2.877,0,0,1,987.776,208.191Z" transform="translate(-986.614 -195.295)" fill="#333"/>
        <path id="パス_24" data-name="パス 24" d="M993.619,208.554v.839a.274.274,0,0,0,.274.274h1.629a.275.275,0,0,0,.275-.274v-1.2a2.878,2.878,0,0,1-1.4.363Z" transform="translate(-984.763 -195.295)" fill="#333"/>
        <path id="パス_25" data-name="パス 25" d="M996.071,198.4h-6.159a3.018,3.018,0,0,0-3.018,3.018v7.338a2.568,2.568,0,0,0,2.565,2.565h7.065a2.568,2.568,0,0,0,2.565-2.565v-7.338A3.018,3.018,0,0,0,996.071,198.4Zm-5.693,1.355h5.227v.872h-5.227Zm-1.572,2.816a.686.686,0,0,1,.686-.686h7a.686.686,0,0,1,.686.686v2.895a.686.686,0,0,1-.686.686h-7a.686.686,0,0,1-.686-.686Zm.653,6.937a.8.8,0,1,1,.8-.8A.8.8,0,0,1,989.459,209.506Zm5.108.99h-3V209.19h3Zm1.957-.99a.8.8,0,1,1,.8-.8A.8.8,0,0,1,996.524,209.506Z" transform="translate(-986.894 -198.398)" fill="#333"/>
      </g>
      <g id="グループ_8" data-name="グループ 8" transform="translate(192.139 300.321)">
        <path id="パス_26" data-name="パス 26" d="M1093.08,303.363a115.756,115.756,0,0,1-30.418,0l1.035,3.4q2.9.413,5.814.657l-.191,4.85h-4.268V315.1h4.156l-.493,12.5,3.017.119.5-12.622h11.279l.5,12.622,3.018-.119-.494-12.5h4.157v-2.826h-4.269l-.191-4.85q2.914-.245,5.815-.657Zm-16.719,8.911h-4.016l.183-4.643c1.276.068,2.556.111,3.833.129Zm3.02,0V307.76q1.92-.028,3.836-.129l.183,4.643Z" transform="translate(-1062.662 -303.363)" fill="#333"/>
      </g>
      <g id="グループ_9" data-name="グループ 9" transform="translate(177.277 327.912)">
        <path id="パス_27" data-name="パス 27" d="M1053.072,328.627a5.646,5.646,0,0,1-1.305,1.463,4.03,4.03,0,0,0-.39-.291,4.176,4.176,0,0,0,1.193-1.33Zm4.133-3.078H1051.5v-.469h2.577v-.765h.507v.765h2.623Zm-2.623,2.538v1.68c0,.283-.066.421-.29.494a4.562,4.562,0,0,1-1.175.074,1.863,1.863,0,0,0-.165-.456c.456.013.864.007.976,0s.153-.026.153-.119v-1.674H1052.3v-1.938h4.147v1.938Zm-1.794-.428h3.151v-1.083h-3.151Zm3.217.816a11.686,11.686,0,0,1,1.252,1.417l-.476.244a10.084,10.084,0,0,0-1.218-1.45Z" transform="translate(-1051.377 -324.315)" fill="#f3f3f3"/>
        <path id="パス_28" data-name="パス 28" d="M1057.933,327.163a4.738,4.738,0,0,0-1.1-.665l.278-.357a4.641,4.641,0,0,1,1.1.62Zm-.956,2.808a17.837,17.837,0,0,0,.949-2.09l.4.277c-.257.686-.6,1.483-.9,2.1Zm1.219-4.527a4.372,4.372,0,0,0-1.048-.712l.284-.349a4.093,4.093,0,0,1,1.055.68Zm.956,3.861v-1.74c-.2.046-.4.087-.593.125a2.307,2.307,0,0,0-.283-.4c.288-.046.586-.1.876-.158v-.046h.2a10.431,10.431,0,0,0,1.068-.3v-.8h-1.016v-.369h2.584v.369h-1.114v.627a3.959,3.959,0,0,0,1.015-.568l.415.2a5.676,5.676,0,0,1-1.568.844h1.667V329.3Zm1.3.317a6.482,6.482,0,0,1-1.68.719,2.325,2.325,0,0,0-.27-.35,5.437,5.437,0,0,0,1.541-.645Zm-.456-3.349a3.884,3.884,0,0,1-1.192.686,1.667,1.667,0,0,0-.284-.3,3.973,3.973,0,0,0,1.115-.6Zm-.909-.382h-.435v-1.015h1.76v-.561h.474v.561h1.879v1.015h-.462v-.633h-3.216Zm.7,1.509c-.059.013-.119.033-.178.046v.283h2.327V327.4Zm2.149.627h-2.327v.329h2.327Zm0,.626h-2.327V329h2.327Zm-.574.686a16.267,16.267,0,0,1,1.543.7l-.369.3c-.344-.192-.917-.483-1.456-.719Z" transform="translate(-1049.648 -324.315)" fill="#f3f3f3"/>
        <path id="パス_29" data-name="パス 29" d="M1064.377,324.471a9.877,9.877,0,0,1-.653,1.376v4.484h-.481v-3.712a6.625,6.625,0,0,1-.68.831,2.574,2.574,0,0,0-.276-.494,7.4,7.4,0,0,0,1.623-2.63Zm2.069,2.26a4.55,4.55,0,0,0,1.958,3.178,1.745,1.745,0,0,0-.364.423,1.965,1.965,0,1,0-3.6,0,1.914,1.914,0,0,0-.4-.316,4.453,4.453,0,0,0,1.807-3.284h-1.693v-.481h1.726c.007-.137.007-.27.007-.4v-1.521h.489v1.521c0,.133,0,.266-.007.4h1.936v.481Zm1.206-.83a7.226,7.226,0,0,0-.783-1.167l.369-.217a8.343,8.343,0,0,1,.81,1.134Z" transform="translate(-1047.92 -324.312)" fill="#f3f3f3"/>
        <path id="パス_30" data-name="パス 30" d="M1073.082,329.764c.263,0,.317-.118.342-.93a1.339,1.339,0,0,0,.456.2c-.059.956-.205,1.193-.757,1.193h-1.061c-.62,0-.785-.145-.785-.678v-1.318h-1.081c-.158,1.055-.581,1.713-2.075,2.057a1.4,1.4,0,0,0-.276-.429c1.35-.271,1.7-.784,1.837-1.628h-.889v-3.737h4.146v3.737h-1.167v1.312c0,.191.053.224.336.224Zm-3.815-4.159h3.177v-.673h-3.177Zm0,1.088h3.177v-.68h-3.177Zm0,1.1h3.177v-.685h-3.177Z" transform="translate(-1046.159 -324.259)" fill="#f3f3f3"/>
        <path id="パス_31" data-name="パス 31" d="M1074.809,326.973c.186.165.726.731.851.89l-.29.369a7.324,7.324,0,0,0-.561-.785v2.888h-.461v-2.842a7.6,7.6,0,0,1-.783,1.682,2.408,2.408,0,0,0-.257-.449,6.909,6.909,0,0,0,.961-2.075h-.884v-.456h.963v-1.021c-.283.058-.581.112-.851.151a1.284,1.284,0,0,0-.144-.363,8.178,8.178,0,0,0,1.9-.514l.369.344a5.416,5.416,0,0,1-.811.27v1.133h.8v.456h-.8Zm4.239-2.254a17.767,17.767,0,0,1-3.316.573,1.612,1.612,0,0,0-.138-.375,16.6,16.6,0,0,0,3.078-.561Zm-2.908.765a4.068,4.068,0,0,1,.474,1.08l-.421.146a3.932,3.932,0,0,0-.454-1.1Zm-.342,1.417h.448v3.407h-.448Zm.982.125h2.393V330.3h-.462v-.329h-1.489v.363h-.441Zm.5-.481a4.1,4.1,0,0,0-.336-1.142l.416-.112a4.476,4.476,0,0,1,.361,1.121Zm-.059.9v.831h1.489v-.831Zm1.489,2.1v-.864h-1.489v.864Zm-.678-2.7a11.377,11.377,0,0,0,.765-1.68l.481.145a14.986,14.986,0,0,1-.844,1.679Z" transform="translate(-1044.427 -324.302)" fill="#f3f3f3"/>
        <path id="パス_32" data-name="パス 32" d="M1080.786,326.03a7.366,7.366,0,0,1-.553.95v3.355h-.482v-2.742a5.17,5.17,0,0,1-.653.645,3.2,3.2,0,0,0-.316-.421,5.458,5.458,0,0,0,1.536-1.938Zm-.29-.737h-1.491v-.449h1.491v-.528h.481v.528h1.787v-.528h.481v.528h1.529v.449h-1.529v.6h-.481v-.6h-1.787v.6h-.481Zm4.323,1.358h-.64v3.071c0,.29-.079.428-.3.5a4.086,4.086,0,0,1-1.147.079,1.771,1.771,0,0,0-.183-.461c.453.018.869.018.988.013s.158-.039.158-.138V326.65h-2.8v-.456h3.922Zm-3.382,2.47v.39h-.461v-2.248h2.089v1.858Zm0-1.443v1.028h1.173v-1.028Z" transform="translate(-1042.692 -324.315)" fill="#f3f3f3"/>
        <path id="パス_33" data-name="パス 33" d="M1086.74,325.707a6.1,6.1,0,0,1-.764,1.391c.236.184.718.626.849.757l-.283.4c-.138-.178-.449-.515-.691-.759v2.821h-.474v-2.5a5.647,5.647,0,0,1-.884.777,2.31,2.31,0,0,0-.252-.443,5.718,5.718,0,0,0,1.892-2.161h-1.654v-.448h.9v-1.226h.474v1.226h.527l.092-.021Zm3.52-.257v3.282h-.462v-.25h-1v1.853h-.466v-1.853h-.957v.283h-.454V325.45h1.411v-1.135h.466v1.135Zm-2.888.448v.843h.957V325.9Zm.957,2.143v-.87h-.957v.87Zm.466-2.143v.843h1V325.9Zm1,2.143v-.87h-1v.87Z" transform="translate(-1040.962 -324.315)" fill="#f3f3f3"/>
        <path id="パス_34" data-name="パス 34" d="M1092.324,328.44c-.171-.191-.533-.561-.831-.838v2.73h-.481v-2.559a6.312,6.312,0,0,1-1.009.824,2.2,2.2,0,0,0-.257-.442,5.68,5.68,0,0,0,2.062-2.161h-1.83v-.448h1.034v-1.226h.481v1.226h.574l.086-.021.277.186a5.941,5.941,0,0,1-.856,1.437c.31.244.89.751,1.055.9Zm3.632,1.226v.481h-3.691v-.481h1.669v-2.735h-1.412v-.475h1.412v-2.09h.487v2.09h1.4v.475h-1.4v2.735Z" transform="translate(-1039.217 -324.313)" fill="#f3f3f3"/>
      </g>
      <rect id="長方形_6" data-name="長方形 6" width="9" height="9" transform="translate(158 277)" fill="#333"/>
      <g id="グループ_10" data-name="グループ 10" transform="translate(159.668 285.075)">
        <line id="線_3" data-name="線 3" y1="25.021" x2="2.634" transform="translate(0.336 0.034)" fill="#1a1311"/>
        <rect id="長方形_7" data-name="長方形 7" width="25.159" height="0.66" transform="translate(0 25.019) rotate(-83.956)" fill="#1a1311"/>
      </g>
      <g id="グループ_11" data-name="グループ 11" transform="translate(104.047 307.058)">
        <path id="パス_35" data-name="パス 35" d="M998.4,309.149v.614h1.476a1.286,1.286,0,0,0,.453-.053l.357.224c-.033.1-.072.27-.1.4a6.188,6.188,0,0,1-.645,1.983,4.2,4.2,0,0,1-2.611,1.866l-.428-.5a3.954,3.954,0,0,0,2.472-1.509,4.841,4.841,0,0,0,.626-1.925h-3.683v1.181a2.407,2.407,0,0,0,.026.4h-.573c.012-.119.019-.3.019-.423v-1.16a4.691,4.691,0,0,0-.019-.507,5.812,5.812,0,0,0,.611.026h1.458v-.614a3.531,3.531,0,0,0-.034-.494h.633A3.086,3.086,0,0,0,998.4,309.149Z" transform="translate(-995.769 -308.423)" fill="#f3f3f3"/>
        <path id="パス_36" data-name="パス 36" d="M1004.875,310.865a4.538,4.538,0,0,1-.963,1.873,4.772,4.772,0,0,1-2.36,1.377l-.407-.467a4.394,4.394,0,0,0,2.319-1.206,3.369,3.369,0,0,0,.783-1.456h-3.5c-.158,0-.41.007-.645.02v-.553c.242.025.467.038.645.038h3.473a.882.882,0,0,0,.364-.053l.375.238A1.2,1.2,0,0,0,1004.875,310.865Zm-3.586-1.9h2.59a4.334,4.334,0,0,0,.6-.032v.547c-.158-.013-.382-.02-.607-.02h-2.584c-.2,0-.416.007-.593.02v-.547A4.334,4.334,0,0,0,1001.289,308.968Z" transform="translate(-994.395 -308.334)" fill="#f3f3f3"/>
        <path id="パス_37" data-name="パス 37" d="M1006.727,314.2l-.441-.416c1.2-.461,1.8-1.029,1.8-2.875v-.275h-1.878V311.7c0,.245.02.535.026.6h-.581c.007-.066.028-.349.028-.6v-1.067h-.712c-.283,0-.581.02-.658.026v-.574a4.752,4.752,0,0,0,.658.047h.712v-.844a4.1,4.1,0,0,0-.028-.482h.586a4.547,4.547,0,0,0-.032.482v.844h1.878v-.824a3.636,3.636,0,0,0-.033-.54h.594a4.821,4.821,0,0,0-.034.54v.824h.726a4.741,4.741,0,0,0,.606-.034v.554c-.072-.008-.316-.02-.606-.02h-.726v.237C1008.611,312.626,1008.236,313.529,1006.727,314.2Z" transform="translate(-993.063 -308.386)" fill="#f3f3f3"/>
        <path id="パス_38" data-name="パス 38" d="M1011.823,309.266c-.007.236-.018.461-.033.678h1.568a2.272,2.272,0,0,0,.423-.033l.369.186a2.07,2.07,0,0,0-.034.323,12.867,12.867,0,0,1-.4,3.183.686.686,0,0,1-.706.4c-.336,0-.718-.026-1.061-.046l-.066-.547a8.3,8.3,0,0,0,.983.072.356.356,0,0,0,.382-.217,9.911,9.911,0,0,0,.336-2.829h-1.845a4.651,4.651,0,0,1-2.023,3.652l-.482-.389a3.266,3.266,0,0,0,.68-.487,4.242,4.242,0,0,0,1.3-2.776h-1.108a6.706,6.706,0,0,0-.757.028V309.9a6.6,6.6,0,0,0,.752.039h1.159c.015-.211.028-.435.028-.672a4.191,4.191,0,0,0-.046-.546h.619C1011.843,308.877,1011.83,309.108,1011.823,309.266Z" transform="translate(-991.502 -308.401)" fill="#f3f3f3"/>
        <path id="パス_39" data-name="パス 39" d="M1015.264,309.534l.587.125c-.041.145-.094.336-.119.474a14.658,14.658,0,0,1-.6,2.064,9.488,9.488,0,0,1-.969,1.812l-.56-.237a8.633,8.633,0,0,0,1.014-1.794A9.969,9.969,0,0,0,1015.264,309.534Zm1.641.112.535-.178a21.293,21.293,0,0,1,.961,2.082c.27.653.62,1.662.792,2.255l-.587.191a19.751,19.751,0,0,0-.744-2.266A16.774,16.774,0,0,0,1016.9,309.646Zm1.858.086-.356.158a7.516,7.516,0,0,0-.533-.917l.349-.144A7.322,7.322,0,0,1,1018.763,309.732Zm.739-.27-.355.158a6.18,6.18,0,0,0-.548-.91l.35-.145A7.662,7.662,0,0,1,1019.5,309.462Z" transform="translate(-990.117 -308.452)" fill="#f3f3f3"/>
        <path id="パス_40" data-name="パス 40" d="M1020.683,311.36a4.829,4.829,0,0,0-1.2-.645l.27-.375a5.155,5.155,0,0,1,1.206.6Zm-1.022,2.742a18.577,18.577,0,0,0,1.075-2.1l.369.291c-.29.691-.678,1.5-1.015,2.115Zm1.266-4.475a4.449,4.449,0,0,0-1.119-.732l.282-.349a4.543,4.543,0,0,1,1.142.7Zm2.6,1.14v.553h1.761v2.643c0,.244-.046.377-.225.448a3.439,3.439,0,0,1-.956.066,1.713,1.713,0,0,0-.13-.415c.334.013.645.013.737.013s.119-.033.119-.112v-2.207h-1.351v1.337h.554v-.982h.323v1.662h-.323v-.3h-1.464v.4h-.329v-1.754h.329v.982h.528v-1.337H1021.8v2.727h-.443v-3.163h1.687v-.553h-1.964v-.441h1.167v-.739h-.943v-.429h.943v-.68h.456v.68h1.165v-.68h.469v.68h.975v.429h-.975v.739h1.154v.441Zm-.816-.441h1.165v-.739h-1.165Z" transform="translate(-988.254 -308.479)" fill="#f3f3f3"/>
        <path id="パス_41" data-name="パス 41" d="M1029.62,313.7c0,.344-.1.515-.344.593a5.229,5.229,0,0,1-1.389.092,2.352,2.352,0,0,0-.205-.507c.548.02,1.076.013,1.226.013s.2-.053.2-.2v-1.318h-3.163a3.725,3.725,0,0,1-1.132,2.05,1.869,1.869,0,0,0-.364-.357,4.156,4.156,0,0,0,1.154-3.309V308.74h4.014Zm-.508-1.805v-1.108H1026.1a8.31,8.31,0,0,1-.072,1.108Zm-3.012-2.671v1.1h3.012v-1.1Z" transform="translate(-986.679 -308.396)" fill="#f3f3f3"/>
        <path id="パス_42" data-name="パス 42" d="M1031.033,308.99h1.213a2.424,2.424,0,0,1,.028,4.838h-1.24Zm1.16,4.338c1.141,0,1.7-.712,1.7-1.932s-.56-1.9-1.7-1.9h-.546v3.836Z" transform="translate(-984.594 -308.317)" fill="#f3f3f3"/>
        <path id="パス_43" data-name="パス 43" d="M1034.224,311.762a1.672,1.672,0,1,1,1.659,1.871A1.715,1.715,0,0,1,1034.224,311.762Zm2.7,0c0-.823-.422-1.384-1.042-1.384s-1.035.561-1.035,1.384.416,1.371,1.035,1.371S1036.925,312.586,1036.925,311.762Z" transform="translate(-983.583 -308.036)" fill="#f3f3f3"/>
      </g>
      <rect id="長方形_8" data-name="長方形 8" width="9" height="9" transform="translate(250 300)" fill="#333"/>
      <g id="グループ_12" data-name="グループ 12" transform="translate(262.923 303.026)">
        <path id="パス_44" data-name="パス 44" d="M1116.413,305.417h.6v1.437l-.018.737a1.675,1.675,0,0,1,1.185-.6c.752,0,1.094.489,1.094,1.405v2.266h-.6v-2.187c0-.672-.2-.956-.679-.956a1.362,1.362,0,0,0-.982.548v2.6h-.6Z" transform="translate(-1116.413 -305.417)" fill="#f3f3f3"/>
        <path id="パス_45" data-name="パス 45" d="M1119.277,309.354c0-.777.68-1.165,2.2-1.337,0-.462-.151-.9-.737-.9a1.971,1.971,0,0,0-1.075.382l-.237-.415a2.691,2.691,0,0,1,1.411-.469c.869,0,1.238.587,1.238,1.471v2.2h-.494l-.053-.428h-.019a1.927,1.927,0,0,1-1.188.515A.971.971,0,0,1,1119.277,309.354Zm2.2.059v-1c-1.206.145-1.615.441-1.615.9,0,.408.278.574.632.574A1.46,1.46,0,0,0,1121.479,309.413Z" transform="translate(-1115.505 -305.038)" fill="#f3f3f3"/>
        <path id="パス_46" data-name="パス 46" d="M1122.193,305.911a.4.4,0,1,1,.4.4A.378.378,0,0,1,1122.193,305.911Zm.1,1.141h.6v3.578h-.6Z" transform="translate(-1114.581 -305.384)" fill="#f3f3f3"/>
        <path id="パス_47" data-name="パス 47" d="M1123.643,306.706h.5l.052.653h.019a1.239,1.239,0,0,1,1.015-.747.765.765,0,0,1,.383.08l-.112.527a.852.852,0,0,0-.35-.059c-.3,0-.667.211-.9.823v2.3h-.6Z" transform="translate(-1114.122 -305.038)" fill="#f3f3f3"/>
        <path id="パス_48" data-name="パス 48" d="M1126.4,309.875l.3-.4a1.629,1.629,0,0,0,1.061.421c.474,0,.7-.25.7-.56,0-.37-.421-.528-.817-.68-.5-.184-1.048-.428-1.048-1.034,0-.568.46-1.017,1.238-1.017a1.819,1.819,0,0,1,1.108.4l-.29.389a1.313,1.313,0,0,0-.811-.316c-.454,0-.665.237-.665.514,0,.344.37.469.77.62.521.2,1.094.41,1.094,1.086,0,.582-.461,1.063-1.305,1.063A2.154,2.154,0,0,1,1126.4,309.875Z" transform="translate(-1113.249 -305.038)" fill="#f3f3f3"/>
        <path id="パス_49" data-name="パス 49" d="M1128.872,309.354c0-.777.68-1.165,2.2-1.337,0-.462-.151-.9-.739-.9a1.97,1.97,0,0,0-1.073.382l-.238-.415a2.7,2.7,0,0,1,1.412-.469c.869,0,1.238.587,1.238,1.471v2.2h-.494l-.053-.428h-.02a1.917,1.917,0,0,1-1.187.515A.971.971,0,0,1,1128.872,309.354Zm2.2.059v-1c-1.206.145-1.616.441-1.616.9,0,.408.278.574.633.574A1.465,1.465,0,0,0,1131.074,309.413Z" transform="translate(-1112.465 -305.038)" fill="#f3f3f3"/>
        <path id="パス_50" data-name="パス 50" d="M1131.863,309.951v-4.534h.6v4.574c0,.184.079.257.171.257a.521.521,0,0,0,.125-.013l.086.462a.942.942,0,0,1-.348.053C1132.047,310.749,1131.863,310.458,1131.863,309.951Z" transform="translate(-1111.517 -305.417)" fill="#f3f3f3"/>
        <path id="パス_51" data-name="パス 51" d="M1133.082,308.5a1.673,1.673,0,1,1,1.662,1.873A1.718,1.718,0,0,1,1133.082,308.5Zm2.7,0c0-.823-.423-1.384-1.042-1.384s-1.035.561-1.035,1.384.415,1.371,1.035,1.371S1135.786,309.322,1135.786,308.5Z" transform="translate(-1111.13 -305.038)" fill="#f3f3f3"/>
        <path id="パス_52" data-name="パス 52" d="M1136.318,306.706h.494l.053.514h.02a1.716,1.716,0,0,1,1.2-.607c.751,0,1.094.489,1.094,1.405v2.266h-.6V308.1c0-.672-.2-.956-.677-.956a1.36,1.36,0,0,0-.984.548v2.6h-.6Z" transform="translate(-1110.105 -305.038)" fill="#f3f3f3"/>
        <path id="パス_53" data-name="パス 53" d="M1140.7,309.4v-1.985h-.533v-.454l.561-.033.071-1.009h.5v1.009h.969v.487h-.969v2c0,.442.138.693.553.693a1.269,1.269,0,0,0,.41-.092l.118.448a2.259,2.259,0,0,1-.658.133C1140.958,310.591,1140.7,310.11,1140.7,309.4Z" transform="translate(-1108.885 -305.259)" fill="#f3f3f3"/>
        <path id="パス_54" data-name="パス 54" d="M1142.1,308.5a1.731,1.731,0,0,1,1.615-1.886c.91,0,1.424.66,1.424,1.682a2.359,2.359,0,0,1-.025.342H1142.7a1.186,1.186,0,0,0,1.185,1.254,1.534,1.534,0,0,0,.9-.284l.217.4a2.129,2.129,0,0,1-1.187.369A1.711,1.711,0,0,1,1142.1,308.5Zm2.511-.3c0-.719-.329-1.108-.89-1.108a1.1,1.1,0,0,0-1.027,1.108Z" transform="translate(-1108.274 -305.038)" fill="#f3f3f3"/>
        <path id="パス_55" data-name="パス 55" d="M1144.867,308.5a1.732,1.732,0,0,1,1.616-1.886c.909,0,1.424.66,1.424,1.682a2.144,2.144,0,0,1-.028.342h-2.411a1.188,1.188,0,0,0,1.187,1.254,1.533,1.533,0,0,0,.9-.284l.217.4a2.128,2.128,0,0,1-1.185.369A1.712,1.712,0,0,1,1144.867,308.5Zm2.511-.3c0-.719-.329-1.108-.889-1.108a1.1,1.1,0,0,0-1.028,1.108Z" transform="translate(-1107.396 -305.038)" fill="#f3f3f3"/>
        <path id="パス_56" data-name="パス 56" d="M1148,309.4v-1.985h-.533v-.454l.561-.033.071-1.009h.5v1.009h.969v.487h-.969v2c0,.442.138.693.553.693a1.267,1.267,0,0,0,.409-.092l.119.448a2.261,2.261,0,0,1-.658.133C1148.253,310.591,1148,310.11,1148,309.4Z" transform="translate(-1106.573 -305.259)" fill="#f3f3f3"/>
        <path id="パス_57" data-name="パス 57" d="M1149.382,309.354c0-.777.678-1.165,2.2-1.337,0-.462-.153-.9-.739-.9a1.97,1.97,0,0,0-1.073.382l-.238-.415a2.7,2.7,0,0,1,1.41-.469c.87,0,1.239.587,1.239,1.471v2.2h-.494l-.053-.428h-.02a1.921,1.921,0,0,1-1.187.515A.971.971,0,0,1,1149.382,309.354Zm2.2.059v-1c-1.206.145-1.616.441-1.616.9,0,.408.278.574.633.574A1.465,1.465,0,0,0,1151.584,309.413Z" transform="translate(-1105.965 -305.038)" fill="#f3f3f3"/>
      </g>
      <rect id="長方形_9" data-name="長方形 9" width="9" height="9" transform="translate(250 277)" fill="#333"/>
      <g id="グループ_13" data-name="グループ 13" transform="translate(262.647 272.388)">
        <path id="パス_58" data-name="パス 58" d="M1120.651,283.4a8.31,8.31,0,0,1-1.108,1.932,18.078,18.078,0,0,1,1.925,1.97l-.461.4a15.238,15.238,0,0,0-1.812-1.958,8.387,8.387,0,0,1-2.572,1.925l-.421-.443a7.515,7.515,0,0,0,2.717-1.957,5.821,5.821,0,0,0,1.093-1.832h-2.569c-.232,0-.6.026-.666.033v-.6c.092.012.467.04.666.04h2.543a1.8,1.8,0,0,0,.494-.054l.337.257A1.893,1.893,0,0,0,1120.651,283.4Z" transform="translate(-1116.203 -281.929)" fill="#f3f3f3"/>
        <path id="パス_59" data-name="パス 59" d="M1121.212,287.134l-.454-.3a7.032,7.032,0,0,0,1.258-1.728l.461.224A9.452,9.452,0,0,1,1121.212,287.134Zm2.676-3.993v.672h1.74a5.042,5.042,0,0,0,.54-.033v.547c-.178-.013-.375-.013-.533-.013h-1.746v3.19c0,.35-.171.528-.568.528-.276,0-.673-.02-.935-.045l-.046-.528a4.838,4.838,0,0,0,.757.079c.178,0,.257-.079.257-.252v-2.972h-1.832c-.2,0-.382.007-.561.02v-.553a4.962,4.962,0,0,0,.561.033h1.832v-.678a2.309,2.309,0,0,0-.046-.469h.62A2.957,2.957,0,0,0,1123.888,283.141Zm2.484,3.691-.487.27a10.736,10.736,0,0,0-1.1-1.753l.449-.238A14.046,14.046,0,0,1,1126.372,286.832Zm-.625-4.68a.727.727,0,0,1,.726.726.722.722,0,0,1-1.443,0A.725.725,0,0,1,1125.746,282.152Zm0,1.147a.422.422,0,1,0-.416-.421A.417.417,0,0,0,1125.746,283.3Z" transform="translate(-1114.76 -282.152)" fill="#f3f3f3"/>
        <path id="パス_60" data-name="パス 60" d="M1126.655,284.267h3.612c.329,0,.565-.02.711-.033v.645c-.132-.007-.41-.033-.7-.033h-3.619c-.364,0-.711.013-.917.033v-.645C1125.937,284.247,1126.284,284.267,1126.655,284.267Z" transform="translate(-1113.181 -281.492)" fill="#f3f3f3"/>
        <path id="パス_61" data-name="パス 61" d="M1131.722,284.839l-.521.191a16.048,16.048,0,0,0-.737-1.805l.52-.192C1131.154,283.4,1131.57,284.411,1131.722,284.839Zm3.909-1.4a6.923,6.923,0,0,1-1.093,2.472,5.794,5.794,0,0,1-2.585,1.9l-.454-.462a5.331,5.331,0,0,0,2.59-1.753,5.974,5.974,0,0,0,1.055-2.708l.606.171A2.99,2.99,0,0,0,1135.63,283.435Zm-2.156.936-.514.176a17.248,17.248,0,0,0-.646-1.74l.508-.171C1132.968,282.953,1133.363,284,1133.475,284.371Z" transform="translate(-1111.684 -281.998)" fill="#f3f3f3"/>
        <path id="パス_62" data-name="パス 62" d="M1136.9,285.017l-.3.462a14.342,14.342,0,0,0-1.444-.9l.3-.448C1135.85,284.338,1136.621,284.813,1136.9,285.017Zm.771,1.575a6.74,6.74,0,0,0,2.5-2.419l.316.547a7.768,7.768,0,0,1-2.538,2.355,7.921,7.921,0,0,1-2.182.816l-.3-.535A7.182,7.182,0,0,0,1137.674,286.592Zm.211-3.018-.31.454c-.316-.244-1.034-.719-1.416-.943l.3-.441C1136.843,282.862,1137.6,283.37,1137.885,283.574Zm2,.191-.375.171a7.283,7.283,0,0,0-.6-1.04l.361-.153A9.5,9.5,0,0,1,1139.882,283.765Zm.884-.329-.375.171a7.312,7.312,0,0,0-.627-1.022l.37-.158A9.578,9.578,0,0,1,1140.766,283.436Z" transform="translate(-1110.194 -282.065)" fill="#f3f3f3"/>
        <path id="パス_63" data-name="パス 63" d="M1142.508,283.311c-.192.62-.844,2.644-1.173,3.5.968-.093,2.234-.232,2.959-.329a9.46,9.46,0,0,0-.8-1.352l.494-.224a18.649,18.649,0,0,1,1.463,2.681l-.554.252c-.084-.237-.211-.54-.362-.863-1.015.13-3.224.375-4.1.454-.166.013-.357.045-.548.072l-.1-.614c.2.007.423,0,.614-.007.1-.007.211-.013.329-.018.369-.91,1.042-3.018,1.226-3.666a4.348,4.348,0,0,0,.126-.632l.658.132C1142.666,282.863,1142.594,283.035,1142.508,283.311Z" transform="translate(-1108.732 -282.021)" fill="#f3f3f3"/>
        <path id="パス_64" data-name="パス 64" d="M1116.453,288.727h1.437c.983,0,1.662.337,1.662,1.187a1.056,1.056,0,0,1-.706,1.048v.033a1.116,1.116,0,0,1,.982,1.154c0,.948-.752,1.417-1.833,1.417h-1.542Zm1.331,2.062c.831,0,1.167-.309,1.167-.8,0-.568-.388-.778-1.141-.778h-.744v1.575Zm.127,2.289c.828,0,1.318-.3,1.318-.95,0-.6-.475-.877-1.318-.877h-.844v1.827Z" transform="translate(-1116.124 -280.068)" fill="#f3f3f3"/>
        <path id="パス_65" data-name="パス 65" d="M1119.738,288.727h2.786v.521h-2.174v1.516h1.833v.52h-1.833v1.759h2.248v.521h-2.86Z" transform="translate(-1115.083 -280.068)" fill="#f3f3f3"/>
        <path id="パス_66" data-name="パス 66" d="M1123.622,291.686l-1.449-2.959h.652l.62,1.371c.158.357.3.691.474,1.055h.028c.17-.363.335-.7.481-1.055l.624-1.371h.633l-1.45,2.959v1.879h-.614Z" transform="translate(-1114.311 -280.068)" fill="#f3f3f3"/>
        <path id="パス_67" data-name="パス 67" d="M1125.048,291.153c0-1.549.849-2.49,2.062-2.49s2.065.942,2.065,2.49-.852,2.518-2.065,2.518S1125.048,292.7,1125.048,291.153Zm3.5,0c0-1.213-.573-1.957-1.438-1.957s-1.437.744-1.437,1.957.568,1.983,1.437,1.983S1128.548,292.36,1128.548,291.153Z" transform="translate(-1113.4 -280.089)" fill="#f3f3f3"/>
        <path id="パス_68" data-name="パス 68" d="M1128.969,288.727h.632l1.76,3.051.515,1h.031c-.031-.487-.078-1.028-.078-1.529v-2.518h.579v4.838h-.627l-1.758-3.053-.521-.994h-.026c.026.489.071,1,.071,1.509v2.538h-.578Z" transform="translate(-1112.157 -280.068)" fill="#f3f3f3"/>
        <path id="パス_69" data-name="パス 69" d="M1132.578,288.727h1.212a2.424,2.424,0,0,1,.028,4.838h-1.239Zm1.16,4.338c1.139,0,1.7-.712,1.7-1.932s-.561-1.9-1.7-1.9h-.548v3.836Z" transform="translate(-1111.014 -280.068)" fill="#f3f3f3"/>
      </g>
      <rect id="長方形_10" data-name="長方形 10" width="9" height="9" transform="translate(203 153)" fill="#333"/>
      <g id="グループ_14" data-name="グループ 14" transform="translate(187.984 164.561)">
        <path id="パス_70" data-name="パス 70" d="M1062,200.583h.653a6.116,6.116,0,0,0-.04.658v.884h1.753a5.5,5.5,0,0,0,.574-.026v.561c-.105-.013-.375-.02-.581-.02h-1.746a3.464,3.464,0,0,1-1.827,3.295l-.514-.382a2.936,2.936,0,0,0,1.786-2.913h-1.931c-.244,0-.489.007-.626.02v-.568c.137.013.382.033.612.033h1.944v-.889A3.564,3.564,0,0,0,1062,200.583Z" transform="translate(-1059.507 -200.175)" fill="#f3f3f3"/>
        <path id="パス_71" data-name="パス 71" d="M1066.936,201.059c-.005.237-.019.461-.033.678h1.568a2.389,2.389,0,0,0,.423-.033l.369.184a2.055,2.055,0,0,0-.033.323,12.872,12.872,0,0,1-.4,3.184.686.686,0,0,1-.706.4c-.336,0-.718-.026-1.062-.046L1067,205.2a8.049,8.049,0,0,0,.982.072.358.358,0,0,0,.383-.219,9.945,9.945,0,0,0,.334-2.827h-1.845a4.651,4.651,0,0,1-2.023,3.652l-.481-.388a3.208,3.208,0,0,0,.678-.489,4.236,4.236,0,0,0,1.305-2.775h-1.108a7.011,7.011,0,0,0-.757.026v-.56a6.863,6.863,0,0,0,.75.04h1.16c.013-.211.026-.435.026-.672a4.044,4.044,0,0,0-.046-.548h.62C1066.956,200.669,1066.943,200.9,1066.936,201.059Z" transform="translate(-1057.973 -200.195)" fill="#f3f3f3"/>
        <path id="パス_72" data-name="パス 72" d="M1070.775,200.991c.065.237.158.566.257.935,1.133-.217,2.518-.481,2.775-.54a1.32,1.32,0,0,0,.3-.092l.369.263a10.349,10.349,0,0,1-1.667,2.268l-.535-.257a7.3,7.3,0,0,0,1.417-1.662c-.2.033-1.383.271-2.517.494.323,1.187.7,2.577.816,2.947.041.138.118.362.171.514l-.612.145a5.439,5.439,0,0,0-.119-.54c-.1-.344-.487-1.805-.8-2.953-.757.151-1.411.29-1.621.336l-.145-.561c.23-.02.423-.046.658-.079.112-.02.489-.092.977-.184-.12-.428-.211-.764-.252-.9a2.344,2.344,0,0,0-.184-.5l.607-.145A2.81,2.81,0,0,0,1070.775,200.991Z" transform="translate(-1056.544 -200.206)" fill="#f3f3f3"/>
        <path id="パス_73" data-name="パス 73" d="M1078.781,201.569a10.326,10.326,0,0,1-2.4,2.676c.4.4.864.89,1.127,1.213l-.481.382a16.07,16.07,0,0,0-1.188-1.345,15.57,15.57,0,0,0-1.508-1.3l.428-.349c.245.178.785.619,1.233,1.022a8.086,8.086,0,0,0,2.056-2.287h-3.874c-.258,0-.54.026-.673.039v-.593a5.082,5.082,0,0,0,.673.053h3.927a1.374,1.374,0,0,0,.428-.053l.416.336A1.879,1.879,0,0,0,1078.781,201.569Z" transform="translate(-1055.072 -200.033)" fill="#f3f3f3"/>
        <path id="パス_74" data-name="パス 74" d="M1081.645,204.715A5.657,5.657,0,0,0,1084,205.8a1.341,1.341,0,0,0-.291.382,5.693,5.693,0,0,1-2.511-1.377v1.478h-.474V204.8a6.3,6.3,0,0,1-2.485,1.41,1.249,1.249,0,0,0-.3-.375,6.411,6.411,0,0,0,2.294-1.121h-2.149v-.421h2.636v-.382h-.935v-2.1h.8c.066-.171.14-.369.178-.514l.468.086c-.064.151-.124.3-.19.428h1.146v2.1h-1v.382h2.676v.421Zm-1.985-1.351c-.481.237-1,.482-1.417.665l-.2-.4c.389-.15.955-.4,1.514-.645Zm-.066-2.22h-1.509v-.423h1.509v-.448h.487v.448h1.761v-.448h.487v.448h1.555v.423h-1.555v.507h-.487v-.507h-1.761v.507h-.487Zm-.989.474a3.661,3.661,0,0,1,.918.87l-.364.277a4.148,4.148,0,0,0-.9-.9Zm1.622,1.075h1.509v-.528h-1.509Zm0,.87h1.509v-.541h-1.509Zm3.367.481a7.621,7.621,0,0,0-1.377-.857l.277-.3a6.963,6.963,0,0,1,1.384.811Zm.132-2.255a6.95,6.95,0,0,1-1.021.89l-.364-.2a6.8,6.8,0,0,0,.971-.91Z" transform="translate(-1053.665 -200.273)" fill="#f3f3f3"/>
        <path id="パス_75" data-name="パス 75" d="M1088.688,202.781s-.007.151-.007.224c-.084,2-.165,2.735-.362,2.966a.553.553,0,0,1-.448.211,5.606,5.606,0,0,1-.877-.007,1.069,1.069,0,0,0-.138-.454c.349.033.665.039.791.039a.266.266,0,0,0,.242-.092c.146-.151.217-.778.291-2.452h-4.027a5.957,5.957,0,0,1-.864,2.821,1.445,1.445,0,0,0-.389-.309,6.538,6.538,0,0,0,.811-3.639v-1.555h4.514v1.682H1084.2c0,.178-.007.369-.02.566Zm-4.488-1.825v.83h3.546v-.83Zm.983,4.468v.382h-.449v-2.077h2.5v1.695Zm0-1.292v.889h1.595v-.889Z" transform="translate(-1052.093 -200.191)" fill="#f3f3f3"/>
      </g>
      <rect id="長方形_11" data-name="長方形 11" width="9" height="9" transform="translate(300 128)" fill="#333"/>
      <g id="グループ_15" data-name="グループ 15" transform="translate(284.921 119.027)">
        <path id="パス_76" data-name="パス 76" d="M1137.738,166.634a6.44,6.44,0,0,1-.982,2.432,5.028,5.028,0,0,1-2.6,1.766l-.448-.494a4.4,4.4,0,0,0,2.571-1.588,5.035,5.035,0,0,0,.864-2.149h-3.369c-.263,0-.487.013-.66.02v-.579c.186.02.443.04.66.04h3.309a1.356,1.356,0,0,0,.349-.033l.4.257A1.388,1.388,0,0,0,1137.738,166.634Z" transform="translate(-1133.117 -165.587)" fill="#f3f3f3"/>
        <path id="パス_77" data-name="パス 77" d="M1141.78,167.29a5.77,5.77,0,0,1-1.338,1.542l-.428-.3a3.951,3.951,0,0,0,1.133-1.187l-3.149-.007c-.2,0-.416.013-.62.026v-.547a4.723,4.723,0,0,0,.62.046h3.254a2.117,2.117,0,0,0,.364-.033l.3.277A1.771,1.771,0,0,0,1141.78,167.29Zm-3.617,3.672-.469-.369a1.9,1.9,0,0,0,.454-.225,2.28,2.28,0,0,0,1.015-2.187,2.694,2.694,0,0,0-.04-.39h.574C1139.685,169.2,1139.552,170.189,1138.163,170.961Z" transform="translate(-1131.766 -165.339)" fill="#f3f3f3"/>
        <path id="パス_78" data-name="パス 78" d="M1145.554,170.427l-.224.507a21.537,21.537,0,0,0-3.9-.994l.2-.5A23.225,23.225,0,0,1,1145.554,170.427Zm-.237-2.115-.211.507a19.437,19.437,0,0,0-3.309-.8l.2-.494A23.326,23.326,0,0,1,1145.317,168.312Zm.435-1.767-.211.508a21.705,21.705,0,0,0-3.441-.785l.192-.487A22.6,22.6,0,0,1,1145.751,166.545Z" transform="translate(-1130.483 -165.669)" fill="#f3f3f3"/>
        <path id="パス_79" data-name="パス 79" d="M1146.444,166.3v2.2c0,.165.012.382.025.5h-.606a4.321,4.321,0,0,0,.033-.508V166.3c0-.119-.013-.349-.026-.474h.6C1146.456,165.949,1146.444,166.14,1146.444,166.3Zm3.064.046v1.068c0,1.582-.217,2.1-.693,2.669a3.52,3.52,0,0,1-1.568.961l-.428-.454a3.022,3.022,0,0,0,1.575-.876c.469-.548.547-1.081.547-2.327v-1.042a4.746,4.746,0,0,0-.033-.573h.62C1149.515,165.936,1149.508,166.12,1149.508,166.344Z" transform="translate(-1129.078 -165.672)" fill="#f3f3f3"/>
        <path id="パス_80" data-name="パス 80" d="M1150.609,167.435h3.612c.329,0,.568-.02.711-.033v.647c-.132-.007-.408-.033-.7-.033h-3.619c-.363,0-.711.012-.917.033V167.4C1149.891,167.415,1150.239,167.435,1150.609,167.435Z" transform="translate(-1127.864 -165.155)" fill="#f3f3f3"/>
        <path id="パス_81" data-name="パス 81" d="M1159.657,166.681a10.291,10.291,0,0,1-2.4,2.676c.4.4.865.89,1.129,1.213l-.482.382a16.025,16.025,0,0,0-1.187-1.345,15.575,15.575,0,0,0-1.509-1.3l.428-.35c.245.179.785.62,1.234,1.022a8.089,8.089,0,0,0,2.056-2.286h-3.876c-.258,0-.54.026-.672.038v-.593a5.065,5.065,0,0,0,.672.053h3.928a1.389,1.389,0,0,0,.428-.053l.416.336A1.73,1.73,0,0,0,1159.657,166.681Z" transform="translate(-1126.379 -165.555)" fill="#f3f3f3"/>
        <path id="パス_82" data-name="パス 82" d="M1160.009,167.435h3.611c.331,0,.568-.02.713-.033v.647c-.132-.007-.408-.033-.706-.033h-3.618c-.362,0-.713.012-.917.033V167.4C1159.289,167.415,1159.64,167.435,1160.009,167.435Z" transform="translate(-1124.885 -165.155)" fill="#f3f3f3"/>
        <path id="パス_83" data-name="パス 83" d="M1164.5,166.381a4,4,0,0,0-.053-.685h.647c-.02.2-.047.487-.047.685v1.075a20.847,20.847,0,0,1,2.815,1.088l-.225.56a17.247,17.247,0,0,0-2.59-1.061c.006.989.006,1.985.006,2.176s.015.56.041.777h-.64a5.563,5.563,0,0,0,.046-.777Z" transform="translate(-1123.19 -165.696)" fill="#f3f3f3"/>
      </g>
      <path id="パス_84" data-name="パス 84" d="M1032.046,254.234V221.312h-1.317v39.507l2.634-6.585Z" transform="translate(-880.643 -29.044)" fill="#5b714e"/>
      <path id="パス_85" data-name="パス 85" d="M1049.166,301.068v1.317h-17.115l.077-21.07-1.317,0-.077,21.075h0V303.7h25.021Z" transform="translate(-880.643 -10.031)" fill="#5b714e"/>
      <path id="パス_86" data-name="パス 86" d="M1067.6,282.314l-2.634,6.585h1.317v13.164l-8.521-.077,0,1.317,8.526.077v0h1.317" transform="translate(-872.078 -9.713)" fill="#5b714e"/>
      <g id="グループ_19" data-name="グループ 19" transform="translate(162.573 233.738)">
        <g id="グループ_16" data-name="グループ 16">
          <rect id="長方形_12" data-name="長方形 12" width="67.675" height="28.573" transform="translate(0.21 0.21)" fill="#fff"/>
          <path id="パス_87" data-name="パス 87" d="M1108.305,281.8h-68.094V252.8h68.094Zm-67.675-.421h67.257V253.224H1040.63Z" transform="translate(-1040.211 -252.803)" fill="#333"/>
        </g>
        <path id="パス_88" data-name="パス 88" d="M1057.621,274.55a9.29,9.29,0,0,1-7.164-2.737c-2.672-2.834-3.874-7.888-3.386-14.232l.022-.3,1.495.687-.012.146c-.519,6.732.241,10.787,2.468,13.148,1.629,1.729,3.891,2.543,6.854,2.48,3.691-.066,6.4-2.394,6.86-3.977l.067-.234.931.429-.05.174c-.524,1.8-3.525,4.337-7.795,4.413C1057.815,274.549,1057.717,274.55,1057.621,274.55Zm7.463-4.439a7.21,7.21,0,0,1-4.543,3.627c2.517-.718,4.233-2.291,4.707-3.552Zm-17.615-12.2c-.335,4.883.394,9.069,2.032,11.894-1.337-2.515-1.755-6.212-1.355-11.581Z" transform="translate(-1038.071 -251.384)" fill="#5b714e"/>
        <path id="パス_89" data-name="パス 89" d="M1065.7,262.265h-.419V257.6H1050.4v-.421h15.3Z" transform="translate(-1036.984 -251.415)" fill="#333"/>
        <path id="パス_90" data-name="パス 90" d="M1065.917,261.884l-.408-.1c0-.016.379-1.592-.44-2.372-.573-.544-1.6-.6-3.058-.162l-.12-.4c1.615-.481,2.781-.392,3.468.262A3.176,3.176,0,0,1,1065.917,261.884Z" transform="translate(-1033.341 -250.984)" fill="#333"/>
        <path id="パス_91" data-name="パス 91" d="M1049.05,271.41a1.8,1.8,0,0,1-1.323-.623,1.685,1.685,0,0,1-.432-1.712l.1-.234,3.055,1.97-.245.182A1.917,1.917,0,0,1,1049.05,271.41Zm-1.414-1.911a1.411,1.411,0,0,0,.4,1.009,1.311,1.311,0,0,0,1.647.313Z" transform="translate(-1037.991 -247.721)" fill="#333"/>
        <path id="パス_92" data-name="パス 92" d="M1050.425,270.853l-3.042-1.833.143-.187a1.617,1.617,0,0,1,2.023-.244,1.971,1.971,0,0,1,1.209,1.807c-.018.295-.141.4-.241.428Zm-2.374-1.921,2.29,1.38a1.239,1.239,0,0,0-.068-.371,1.653,1.653,0,0,0-.9-.971A1.33,1.33,0,0,0,1048.051,268.931Z" transform="translate(-1037.938 -247.873)" fill="#333"/>
        <path id="パス_93" data-name="パス 93" d="M1050.413,267.884l.761-4.264.261.157a2.229,2.229,0,0,1,.867,1.884,1.92,1.92,0,0,1-1.609,2.193Zm1.054-3.507-.536,3c.955-.295.961-1.451.951-1.7A2.226,2.226,0,0,0,1051.467,264.377Z" transform="translate(-1036.978 -249.375)" fill="#333"/>
        <path id="パス_94" data-name="パス 94" d="M1050.466,267.943a.569.569,0,0,1-.34-.146,2.5,2.5,0,0,1-.628-2.64c.515-1.72,1.8-1.6,1.811-1.6l.228.025-.84,4.273-.083.047A.279.279,0,0,1,1050.466,267.943Zm.56-3.947c-.307.066-.839.323-1.127,1.281a2.248,2.248,0,0,0,.165,1.79,1.536,1.536,0,0,0,.287.37Z" transform="translate(-1037.309 -249.395)" fill="#333"/>
        <path id="パス_95" data-name="パス 95" d="M1047.147,264.918h-.016l-.095,0-3.732-4.68.2-.126c.018-.009,1.543-.944,3.259.81a3.32,3.32,0,0,1,.868,3.554C1047.5,264.764,1047.33,264.918,1047.147,264.918Zm-3.2-4.554,3.234,4.055a1.67,1.67,0,0,0,.205-.655,3.058,3.058,0,0,0-.927-2.555A2.353,2.353,0,0,0,1043.945,260.364Z" transform="translate(-1039.231 -250.57)" fill="#333"/>
        <path id="パス_96" data-name="パス 96" d="M1045.875,265.151a2.838,2.838,0,0,1-2.439-1.879,3.055,3.055,0,0,1-.074-2.835l.166-.253,3.462,4.716-.265.095A2.5,2.5,0,0,1,1045.875,265.151Zm-2.29-4.181a3.045,3.045,0,0,0,.237,2.133c.149.34.946,1.932,2.486,1.578Z" transform="translate(-1039.305 -250.464)" fill="#333"/>
        <g id="グループ_17" data-name="グループ 17" transform="translate(19.847 10.064)">
          <path id="パス_97" data-name="パス 97" d="M1059.708,266.811h-1.217v-2.575H1056.5v2.575h-1.217v-5.9h1.217v2.157h1.992v-2.157h1.217Zm-.832-.385h.448V261.3h-.448v2.157h-2.763V261.3h-.446v5.128h.446v-2.575h2.763Z" transform="translate(-1055.282 -260.297)" fill="#45351d"/>
          <path id="パス_98" data-name="パス 98" d="M1061.244,266.445a1.727,1.727,0,0,1-1.335-.585,2.127,2.127,0,0,1-.518-1.456,2.078,2.078,0,0,1,.516-1.433,1.7,1.7,0,0,1,1.314-.585,1.578,1.578,0,0,1,.9.278v-.182h1.192v3.862h-1.192v-.162A1.618,1.618,0,0,1,1061.244,266.445Zm-.022-3.674a1.315,1.315,0,0,0-1.027.457,1.683,1.683,0,0,0-.419,1.176,1.734,1.734,0,0,0,.42,1.2,1.352,1.352,0,0,0,1.985.043l.324-.3v.615h.421v-3.093h-.421v.687l-.332-.342A1.284,1.284,0,0,0,1061.221,262.771Zm.144,2.956a1.066,1.066,0,0,1-.839-.385,1.406,1.406,0,0,1-.315-.939,1.356,1.356,0,0,1,.323-.913,1.078,1.078,0,0,1,.838-.381,1.1,1.1,0,0,1,.859.375,1.515,1.515,0,0,1,0,1.867A1.108,1.108,0,0,1,1061.365,265.727Zm.007-2.231a.7.7,0,0,0-.548.249.958.958,0,0,0-.226.658,1.019,1.019,0,0,0,.221.689.684.684,0,0,0,.547.25.729.729,0,0,0,.578-.244,1.133,1.133,0,0,0,0-1.359A.718.718,0,0,0,1061.372,263.5Z" transform="translate(-1053.98 -259.83)" fill="#45351d"/>
          <path id="パス_99" data-name="パス 99" d="M1066.5,266.345h-1.192V264.21a1.066,1.066,0,0,0-.107-.6.4.4,0,0,0-.35-.121c-.265,0-.358.1-.406.175a1.586,1.586,0,0,0-.135.807v1.87h-1.192v-3.862h1.192v.117a1.429,1.429,0,0,1,.757-.213,1.39,1.39,0,0,1,1.09.446,1.725,1.725,0,0,1,.341,1.188Zm-.807-.385h.423v-1.94a1.4,1.4,0,0,0-.244-.931,1.009,1.009,0,0,0-.8-.319,1.12,1.12,0,0,0-.814.362l-.329.325v-.591h-.421v3.093h.421v-1.485a1.961,1.961,0,0,1,.2-1.013.8.8,0,0,1,.731-.354.754.754,0,0,1,.664.282,1.427,1.427,0,0,1,.178.82Z" transform="translate(-1052.797 -259.83)" fill="#45351d"/>
          <path id="パス_100" data-name="パス 100" d="M1068.173,266.445a1.729,1.729,0,0,1-1.335-.585,2.136,2.136,0,0,1-.518-1.456,2.076,2.076,0,0,1,.518-1.433,1.7,1.7,0,0,1,1.314-.585,1.584,1.584,0,0,1,.9.278v-.182h1.192v3.862h-1.192v-.162A1.619,1.619,0,0,1,1068.173,266.445Zm-.021-3.674a1.316,1.316,0,0,0-1.028.457,1.682,1.682,0,0,0-.419,1.176,1.743,1.743,0,0,0,.42,1.2,1.351,1.351,0,0,0,1.984.043l.324-.3v.615h.423v-3.093h-.423v.689l-.331-.344A1.288,1.288,0,0,0,1068.152,262.771Zm.142,2.956a1.062,1.062,0,0,1-.838-.385,1.4,1.4,0,0,1-.315-.939,1.35,1.35,0,0,1,.321-.911,1.08,1.08,0,0,1,.839-.382,1.1,1.1,0,0,1,.859.375,1.517,1.517,0,0,1,0,1.869A1.112,1.112,0,0,1,1068.294,265.727Zm.008-2.231a.7.7,0,0,0-.549.249.967.967,0,0,0-.226.658,1.012,1.012,0,0,0,.223.689.682.682,0,0,0,.545.25.732.732,0,0,0,.58-.244,1.132,1.132,0,0,0,0-1.359A.719.719,0,0,0,1068.3,263.5Z" transform="translate(-1051.784 -259.83)" fill="#45351d"/>
          <path id="パス_101" data-name="パス 101" d="M1074.994,266.937a2.967,2.967,0,0,1-2.153-.88,2.935,2.935,0,0,1-.889-2.144,3.032,3.032,0,0,1,.741-2,2.97,2.97,0,0,1,2.364-1.078,3.024,3.024,0,0,1,1.533.429l.1.057v1.508l-.316-.265A2.138,2.138,0,0,0,1075,262a1.705,1.705,0,0,0-1.293.55,1.861,1.861,0,0,0-.532,1.352,1.808,1.808,0,0,0,.531,1.33,1.735,1.735,0,0,0,1.3.539,1.582,1.582,0,0,0,.665-.125,2.047,2.047,0,0,0,.33-.179,3.882,3.882,0,0,0,.369-.279l.317-.266v1.529l-.1.055A3.2,3.2,0,0,1,1074.994,266.937Zm.063-5.721a2.569,2.569,0,0,0-2.07.943,2.657,2.657,0,0,0-.651,1.754,2.528,2.528,0,0,0,.776,1.87,2.558,2.558,0,0,0,1.882.769,2.806,2.806,0,0,0,1.306-.325v-.5l-.088.061a2.392,2.392,0,0,1-.387.209,1.947,1.947,0,0,1-.82.158,2.134,2.134,0,0,1-1.574-.653,2.211,2.211,0,0,1-.64-1.6,2.255,2.255,0,0,1,.639-1.618,2.1,2.1,0,0,1,1.571-.669,2.352,2.352,0,0,1,1.3.412v-.49A2.61,2.61,0,0,0,1075.057,261.217Z" transform="translate(-1049.999 -260.322)" fill="#45351d"/>
          <path id="パス_102" data-name="パス 102" d="M1081.826,266.96h-1.335l-.578-1.338H1077.8l-.614,1.338h-1.321l3.033-6.515Zm-1.083-.385h.487l-2.337-5.2-2.423,5.2h.472l.614-1.339h2.61Zm-.749-1.736h-2.269l1.162-2.539Zm-1.67-.386h1.081l-.528-1.21Z" transform="translate(-1048.759 -260.445)" fill="#45351d"/>
          <path id="パス_103" data-name="パス 103" d="M1082.038,266.811h-1.217v-5.9h3.138v1.168h-1.921v.939h1.853v1.167h-1.853Zm-.832-.385h.448V263.8h1.853v-.4h-1.853V261.7h1.92v-.4h-2.368Z" transform="translate(-1047.189 -260.297)" fill="#45351d"/>
          <path id="パス_104" data-name="パス 104" d="M1087.349,266.811h-3.428v-5.9h3.428v1.168h-2.211v.939h2.146v1.167h-2.146v1.458h2.211Zm-3.043-.385h2.657v-.4h-2.21V263.8h2.145v-.4h-2.145V261.7h2.21v-.4h-2.657Z" transform="translate(-1046.206 -260.297)" fill="#45351d"/>
        </g>
        <g id="グループ_18" data-name="グループ 18" transform="translate(31.928 17.938)">
          <path id="パス_105" data-name="パス 105" d="M1064.456,267.418h.468v.186a.762.762,0,0,1,.549-.242.694.694,0,0,1,.548.221.907.907,0,0,1,.17.614v1.235h-.468v-1.125a.731.731,0,0,0-.083-.411.33.33,0,0,0-.292-.116.358.358,0,0,0-.329.153,1.052,1.052,0,0,0-.095.527v.972h-.468Z" transform="translate(-1064.456 -266.127)" fill="#333"/>
          <path id="パス_106" data-name="パス 106" d="M1067.726,267.418h.468v2.014h-.468v-.211a.894.894,0,0,1-1.309-.033,1.123,1.123,0,0,1-.27-.769,1.084,1.084,0,0,1,.27-.755.875.875,0,0,1,.678-.3.859.859,0,0,1,.631.29Zm-1.1,1a.7.7,0,0,0,.155.47.5.5,0,0,0,.4.184.537.537,0,0,0,.419-.178.768.768,0,0,0,0-.934.525.525,0,0,0-.414-.18.513.513,0,0,0-.4.182A.67.67,0,0,0,1066.622,268.418Z" transform="translate(-1063.92 -266.127)" fill="#333"/>
          <path id="パス_107" data-name="パス 107" d="M1068.612,270.527h-.465v-3.109h.465v.219a.861.861,0,0,1,.624-.275.873.873,0,0,1,.685.307,1.106,1.106,0,0,1,.273.766,1.088,1.088,0,0,1-.27.755.883.883,0,0,1-1.312.017Zm1.106-2.09a.7.7,0,0,0-.157-.471.51.51,0,0,0-.4-.184.533.533,0,0,0-.416.178.677.677,0,0,0-.158.468.693.693,0,0,0,.158.467.525.525,0,0,0,.413.179.507.507,0,0,0,.4-.182A.664.664,0,0,0,1069.718,268.437Z" transform="translate(-1063.286 -266.127)" fill="#333"/>
          <path id="パス_108" data-name="パス 108" d="M1070.54,270.527h-.465v-3.109h.465v.219a.861.861,0,0,1,.624-.275.874.874,0,0,1,.685.307,1.105,1.105,0,0,1,.273.766,1.09,1.09,0,0,1-.271.755.882.882,0,0,1-1.31.017Zm1.106-2.09a.692.692,0,0,0-.158-.471.507.507,0,0,0-.4-.184.533.533,0,0,0-.416.178.677.677,0,0,0-.159.468.694.694,0,0,0,.159.467.525.525,0,0,0,.414.179.5.5,0,0,0,.4-.182A.657.657,0,0,0,1071.646,268.437Z" transform="translate(-1062.675 -266.127)" fill="#333"/>
          <path id="パス_109" data-name="パス 109" d="M1073.51,267.418h.466v2.014h-.466v-.211a.894.894,0,0,1-1.309-.033,1.124,1.124,0,0,1-.271-.769,1.085,1.085,0,0,1,.271-.755.873.873,0,0,1,.678-.3.861.861,0,0,1,.631.29Zm-1.1,1a.7.7,0,0,0,.155.47.5.5,0,0,0,.4.184.537.537,0,0,0,.419-.178.764.764,0,0,0,0-.934.525.525,0,0,0-.413-.18.515.515,0,0,0-.4.182A.677.677,0,0,0,1072.405,268.418Z" transform="translate(-1062.088 -266.127)" fill="#333"/>
          <path id="パス_110" data-name="パス 110" d="M1075.313,266.424l.354.265-.762,1.038.105-.012.067,0a.9.9,0,0,1,.673.3.984.984,0,0,1,.281.707,1.07,1.07,0,0,1-1.064,1.064,1.073,1.073,0,0,1-.761-.308.98.98,0,0,1-.32-.73,1.374,1.374,0,0,1,.312-.8Zm.249,2.322a.605.605,0,1,0-.6.6.6.6,0,0,0,.6-.6Z" transform="translate(-1061.468 -266.424)" fill="#333"/>
          <path id="パス_111" data-name="パス 111" d="M1076.587,269.823l-.354-.262.764-1.04-.107.013c-.028,0-.052,0-.07,0a.892.892,0,0,1-.669-.3.984.984,0,0,1-.282-.707,1.07,1.07,0,0,1,1.064-1.067,1.059,1.059,0,0,1,.759.311.968.968,0,0,1,.323.727,1.4,1.4,0,0,1-.313.8Zm-.249-2.323a.59.59,0,0,0,.177.433.6.6,0,1,0,.425-1.029.6.6,0,0,0-.6.6Z" transform="translate(-1060.839 -266.41)" fill="#333"/>
        </g>
      </g>
      <g id="家" transform="translate(25.838 19.951)">
        <g id="グループ_21" data-name="グループ 21" transform="translate(307.843 159.41)">
          <path id="パス_112" data-name="パス 112" d="M1188.192,219.118l-3.985-3.984-3.623-3.623-3.623,3.623-3.987,3.987-2.832,2.831,1.63,1.631,2.832-2.832,3.987-3.986,1.992-1.992,1.992,1.992,3.985,3.985,2.834,2.833,1.631-1.631Z" transform="translate(-1170.143 -211.511)" fill="#333"/>
          <path id="パス_113" data-name="パス 113" d="M1172.8,222.439v6.124h7.71v-4.853h2.807v4.853h3.373v-6.126l-6.944-6.945Z" transform="translate(-1169.302 -210.249)" fill="#333"/>
        </g>
        <g id="グループ_22" data-name="グループ 22" transform="translate(291.852 172.226)">
          <path id="パス_114" data-name="パス 114" d="M1172.834,226.58l-3.275-2.8-2.978-2.542-2.977,2.542-3.277,2.8L1158,228.568l1.34,1.144,2.327-1.987,3.277-2.8,1.637-1.4,1.637,1.4,3.275,2.8,2.329,1.988,1.34-1.144Z" transform="translate(-1158 -221.243)" fill="#333"/>
          <path id="パス_115" data-name="パス 115" d="M1160.182,228.91v4.3h6.337v-3.4h2.307v3.4h2.773v-4.3l-5.708-4.872Z" transform="translate(-1157.309 -220.358)" fill="#333"/>
        </g>
        <g id="グループ_23" data-name="グループ 23" transform="translate(15.991 37.347)">
          <path id="パス_116" data-name="パス 116" d="M966.572,126.429l-3.985-3.984-3.623-3.623-3.623,3.623-3.987,3.987-2.832,2.831,1.63,1.631,2.832-2.832,3.987-3.986,1.992-1.992,1.992,1.992,3.985,3.985,2.834,2.833,1.631-1.631Z" transform="translate(-948.523 -118.821)" fill="#333"/>
          <path id="パス_117" data-name="パス 117" d="M951.178,129.75v6.124h7.71v-4.852h2.807v4.852h3.373v-6.126l-6.944-6.945Z" transform="translate(-947.682 -117.559)" fill="#333"/>
        </g>
        <g id="グループ_24" data-name="グループ 24" transform="translate(0 50.163)">
          <path id="パス_118" data-name="パス 118" d="M951.215,133.891l-3.275-2.8-2.978-2.542-2.978,2.542-3.277,2.8-2.327,1.986,1.34,1.144,2.327-1.987,3.277-2.8,1.637-1.4,1.637,1.4,3.275,2.8,2.329,1.988,1.34-1.144Z" transform="translate(-936.38 -128.554)" fill="#333"/>
          <path id="パス_119" data-name="パス 119" d="M938.562,136.221v4.3H944.9v-3.4h2.307v3.4h2.772v-4.3l-5.708-4.872Z" transform="translate(-935.689 -127.668)" fill="#333"/>
        </g>
        <g id="グループ_25" data-name="グループ 25" transform="translate(1.317 224.347)">
          <path id="パス_120" data-name="パス 120" d="M940.214,268.429l3.985-3.984,3.623-3.623,3.623,3.623,3.987,3.987,2.832,2.831-1.631,1.631-2.832-2.832-3.987-3.986-1.992-1.992-1.992,1.992-3.984,3.985-2.834,2.833-1.631-1.631Z" transform="translate(-937.38 -260.821)" fill="#333"/>
          <path id="パス_121" data-name="パス 121" d="M953.925,271.75v6.124h-7.71v-4.853h-2.807v4.853h-3.373v-6.126l6.944-6.945Z" transform="translate(-936.539 -259.559)" fill="#333"/>
        </g>
        <g id="グループ_26" data-name="グループ 26" transform="translate(21.027 237.163)">
          <path id="パス_122" data-name="パス 122" d="M954.676,275.891l3.275-2.8,2.978-2.542,2.978,2.542,3.277,2.8,2.327,1.986-1.34,1.144-2.328-1.987-3.277-2.8-1.637-1.4-1.637,1.4-3.275,2.8-2.329,1.988-1.34-1.144Z" transform="translate(-952.347 -270.554)" fill="#333"/>
          <path id="パス_123" data-name="パス 123" d="M965.946,278.221v4.3h-6.337v-3.4H957.3v3.4h-2.772v-4.3l5.708-4.872Z" transform="translate(-951.655 -269.668)" fill="#333"/>
        </g>
        <g id="グループ_27" data-name="グループ 27" transform="translate(245.714)">
          <path id="パス_124" data-name="パス 124" d="M1125.8,98.069l3.985-3.984,3.623-3.623,3.622,3.623,3.987,3.987,2.832,2.831-1.631,1.631-2.832-2.832-3.987-3.986-1.992-1.992-1.992,1.992L1127.43,99.7l-2.834,2.833-1.63-1.631Z" transform="translate(-1122.965 -90.462)" fill="#333"/>
          <path id="パス_125" data-name="パス 125" d="M1139.51,101.39v6.124h-7.71v-4.853h-2.808v4.853h-3.373v-6.126l6.945-6.945Z" transform="translate(-1122.124 -89.2)" fill="#333"/>
        </g>
        <g id="グループ_28" data-name="グループ 28" transform="translate(265.82 12.056)">
          <path id="パス_126" data-name="パス 126" d="M1140.078,104.2l2.6-2.4,2.36-2.184,2.36,2.184,2.6,2.4,1.845,1.707-1.062.983-1.844-1.707-2.6-2.4-1.3-1.2-1.3,1.2-2.6,2.4-1.846,1.708-1.062-.983Z" transform="translate(-1138.233 -99.617)" fill="#333"/>
          <path id="パス_127" data-name="パス 127" d="M1149.01,106.2V109.9h-5.022v-2.925h-1.829V109.9h-2.2V106.2l4.524-4.186Z" transform="translate(-1137.685 -98.856)" fill="#333"/>
        </g>
      </g>
    </g>
  </g>
</svg>
