<?xml version="1.0" encoding="UTF-8"?>
<svg id="_レイヤー_2" data-name="レイヤー 2" xmlns="http://www.w3.org/2000/svg" viewBox="0 0 175.75 73.7">
  <defs>
    <style>
      .cls-1 {
        fill: none;
      }

      .cls-2 {
        fill: #698462;
      }

      .cls-3 {
        fill: #323333;
      }

      .cls-4 {
        fill: #554527;
      }
    </style>
  </defs>
  <g id="logo_アウトライン済" data-name="logo アウトライン済">
    <g id="logo">
      <path class="cls-2" d="m53.51,59.58c-8,0-14.08-2.32-18.58-7.09-6.93-7.36-10.05-20.48-8.79-36.94l.05-.72,3.79,1.74-.03.35c-1.35,17.51.63,28.05,6.42,34.2,4.24,4.5,10.07,6.63,17.84,6.46,9.61-.17,16.67-6.24,17.87-10.37l.16-.56,2.33,1.08-.12.41c-1.36,4.67-9.14,11.24-20.21,11.43-.25,0-.51,0-.76,0Zm19.36-11.55c-1.71,4.48-8.81,10.36-18.62,10.54-.04,0-.09,0-.13,0,.04,0,.09,0,.13,0,10.27-.18,17.54-5.97,19.13-10.31l-.51-.23ZM27.09,16.34c-1.07,15.38,1.93,28.12,8.27,35.14-5.73-6.36-7.71-16.98-6.42-34.29l-1.85-.85Z"/>
      <polygon class="cls-3" points="77.26 27.63 76.26 27.63 76.26 15.47 37.56 15.47 37.56 14.47 77.26 14.47 77.26 27.63"/>
      <path class="cls-3" d="m87.54,27.81l-1.46-.36s.96-4.03-1.09-5.97c-1.42-1.35-4.03-1.48-7.74-.37l-.43-1.44c4.27-1.27,7.37-1.03,9.21.73,2.67,2.55,1.55,7.21,1.5,7.41Z"/>
      <path class="cls-3" d="m35.15,59.08l-7.85-4.73.38-.45s1.93-2.23,5.2-.6c2.71,1.36,3.21,3.7,3.1,4.76-.08.73-.42.92-.62.97l-.2.05Zm-6.23-4.92l6.07,3.66c0-.23-.02-.56-.14-.95-.2-.64-.77-1.84-2.42-2.67-1.71-.86-2.9-.43-3.51-.04Z"/>
      <path class="cls-3" d="m31.41,60.93c-1.02,0-2.2-.38-3.36-1.58-1.91-1.98-1.17-4.29-1.14-4.38l.2-.61,7.83,5.05-.51.44s-1.31,1.08-3.03,1.08Zm-3.66-4.97c-.04.67.08,1.73,1.02,2.7,1.76,1.82,3.53,1.29,4.43.81l-5.45-3.51Z"/>
      <path class="cls-3" d="m36.92,47.57c-.38,0-.78-.27-1-.46-1.23-1.01-2.27-3.29-1.5-6.68,1.02-4.5,4.63-4.17,4.67-4.16l.54.06-2.17,11.07-.24.11c-.09.04-.19.06-.29.06Zm1.49-10.27c-.85.13-2.43.72-3.02,3.36-.61,2.72.1,4.31.57,5.02.24.35.48.58.66.72l1.79-9.1Z"/>
      <path class="cls-3" d="m37.69,47.41l1.96-10.96.65.47c.09.07,2.19,1.64,2.19,4.86-.01,5.56-4.15,5.63-4.19,5.63h-.6Zm2.63-9.06l-1.42,7.95c.93-.27,2.57-1.21,2.58-4.53,0-1.66-.64-2.79-1.16-3.42Z"/>
      <path class="cls-3" d="m23.27,36.67h-.24l-9.67-12.13.49-.29s4.13-2.41,8.4,2.11c3.35,3.54,3,7.38,2.26,9.09-.2.46-.62,1.22-1.24,1.22Zm-8.38-11.8l8.48,10.64c.15-.26.42-.82.56-1.69.17-1.09.27-3.93-2.41-6.77-2.88-3.04-5.53-2.58-6.63-2.18Z"/>
      <path class="cls-3" d="m19.82,37.53c-1.86,0-4.5-.82-6.32-4.83-2.06-4.52-.27-7.22-.19-7.34l.4-.58,8.88,12.1-.57.25s-.92.39-2.19.39Zm-6.01-10.91c-.34.96-.66,2.91.6,5.67,2.1,4.6,5.27,4.44,6.59,4.12l-7.19-9.79Z"/>
      <g>
        <path class="cls-4" d="m65.78,42.51h-3.16v-6.69h-5.18v6.69h-3.16v-15.32h3.16v5.6h5.18v-5.6h3.16v15.32Zm-2.16-1h1.16v-13.32h-1.16v5.6h-7.18v-5.6h-1.16v13.32h1.16v-6.69h7.18v6.69Z"/>
        <path class="cls-4" d="m73.15,42.77c-1.39,0-2.56-.51-3.47-1.52-.89-1.02-1.34-2.29-1.34-3.79s.45-2.73,1.34-3.72c.91-1.01,2.06-1.52,3.42-1.52.84,0,1.62.24,2.33.72v-.47h3.1v10.04h-3.1v-.42c-.72.45-1.48.68-2.27.68Zm-.06-9.55c-1.08,0-1.95.39-2.67,1.19-.73.82-1.09,1.81-1.09,3.05s.36,2.29,1.09,3.12c.72.79,1.61,1.18,2.72,1.18.87,0,1.66-.35,2.43-1.07l.84-.79v1.6h1.1v-8.04h-1.1v1.79l-.86-.89c-.75-.77-1.55-1.15-2.47-1.15Zm.37,7.68c-.87,0-1.6-.34-2.18-1-.54-.64-.82-1.46-.82-2.44,0-.93.28-1.73.84-2.37.58-.66,1.32-.99,2.18-.99.91,0,1.66.33,2.23.98.56.65.84,1.46.84,2.43s-.28,1.78-.83,2.42c-.58.65-1.34.97-2.25.97Zm.02-5.8c-.57,0-1.04.21-1.43.65-.39.46-.59,1.02-.59,1.71,0,.75.19,1.34.58,1.79.38.44.84.65,1.42.65.63,0,1.12-.21,1.5-.63.39-.45.58-1.03.58-1.76s-.19-1.31-.59-1.77c-.38-.42-.86-.63-1.48-.63Z"/>
        <path class="cls-4" d="m89.89,42.51h-3.1v-5.55c0-1.02-.17-1.41-.28-1.55-.15-.21-.45-.31-.91-.31-.68,0-.93.26-1.05.46-.16.25-.35.82-.35,2.1v4.86h-3.1v-10.04h3.1v.31c.61-.37,1.26-.56,1.97-.56,1.2,0,2.15.39,2.83,1.16.6.66.89,1.67.89,3.09v6.04Zm-2.1-1h1.1v-5.04c0-1.14-.21-1.96-.63-2.42-.5-.56-1.18-.83-2.09-.83-.79,0-1.48.31-2.12.94l-.85.85v-1.54h-1.1v8.04h1.1v-3.86c0-1.23.17-2.09.5-2.63.27-.42.81-.92,1.9-.92.81,0,1.39.25,1.73.73.31.42.46,1.12.46,2.13v4.55Z"/>
        <path class="cls-4" d="m96.86,42.77c-1.39,0-2.56-.51-3.47-1.52-.89-1.02-1.34-2.29-1.34-3.79s.45-2.73,1.34-3.72c.91-1.01,2.06-1.52,3.42-1.52.84,0,1.62.24,2.33.72v-.47h3.1v10.04h-3.1v-.42c-.72.45-1.48.68-2.27.68Zm-.06-9.55c-1.08,0-1.95.39-2.67,1.19-.73.82-1.09,1.81-1.09,3.05s.36,2.29,1.09,3.12c.72.79,1.61,1.18,2.72,1.18.87,0,1.66-.35,2.43-1.07l.84-.79v1.6h1.1v-8.04h-1.1v1.79l-.86-.89c-.74-.77-1.55-1.15-2.47-1.15Zm.37,7.68c-.87,0-1.61-.34-2.18-1-.54-.64-.82-1.46-.82-2.44,0-.93.28-1.73.83-2.37.58-.66,1.32-.99,2.18-.99.91,0,1.66.33,2.23.98.56.65.84,1.46.84,2.43s-.28,1.78-.84,2.42c-.58.65-1.33.97-2.25.97Zm.02-5.8c-.57,0-1.04.21-1.43.65-.39.46-.59,1.02-.59,1.71,0,.75.19,1.34.58,1.79.38.44.84.65,1.42.65.63,0,1.12-.21,1.5-.63.39-.45.59-1.03.59-1.76s-.19-1.31-.59-1.77c-.38-.42-.86-.63-1.48-.63Z"/>
        <path class="cls-4" d="m119.22,42.77c-2.17,0-4.05-.77-5.59-2.29-1.53-1.53-2.31-3.41-2.31-5.57,0-1.94.65-3.69,1.93-5.2,1.58-1.86,3.64-2.8,6.14-2.8,1.37,0,2.71.38,3.98,1.12l.25.15v3.92l-.82-.69c-1.15-.96-2.35-1.45-3.56-1.45-1.34,0-2.44.47-3.36,1.43-.93.97-1.38,2.12-1.38,3.51s.45,2.51,1.38,3.45c.93.94,2.03,1.4,3.37,1.4.68,0,1.26-.11,1.73-.32.29-.12.57-.27.86-.46.3-.2.62-.44.96-.73l.82-.69v3.97l-.25.14c-1.31.74-2.7,1.11-4.14,1.11Zm.17-14.86c-2.22,0-3.98.8-5.38,2.45-1.12,1.33-1.69,2.86-1.69,4.56,0,1.92.66,3.5,2.02,4.86,1.36,1.34,2.96,2,4.89,2,1.17,0,2.32-.28,3.4-.85v-1.29c-.08.05-.16.11-.23.16-.34.23-.68.41-1.01.54-.58.27-1.3.41-2.13.41-1.6,0-2.98-.57-4.09-1.7-1.1-1.12-1.67-2.52-1.67-4.15s.56-3.06,1.66-4.21c1.1-1.15,2.47-1.74,4.08-1.74,1.16,0,2.29.36,3.38,1.07v-1.27c-1.04-.56-2.13-.84-3.23-.84Z"/>
        <path class="cls-4" d="m140.19,42.51h-3.47l-1.5-3.48h-5.48l-1.6,3.48h-3.43l7.88-16.93,7.6,16.93Zm-2.81-1h1.26l-6.07-13.52-6.3,13.52h1.22l1.6-3.48h6.78l1.5,3.48Zm-1.95-4.51h-5.89l3.02-6.6,2.88,6.6Zm-4.34-1h2.81l-1.37-3.15-1.44,3.15Z"/>
        <path class="cls-4" d="m144.82,42.51h-3.16v-15.32h8.15v3.03h-4.99v2.44h4.82v3.03h-4.82v6.82Zm-2.16-1h1.16v-6.82h4.82v-1.03h-4.82v-4.44h4.99v-1.03h-6.15v13.32Z"/>
        <path class="cls-4" d="m161.17,42.51h-8.9v-15.32h8.9v3.03h-5.74v2.44h5.58v3.03h-5.58v3.79h5.74v3.03Zm-7.9-1h6.9v-1.03h-5.74v-5.79h5.58v-1.03h-5.58v-4.44h5.74v-1.03h-6.9v13.32Z"/>
      </g>
      <g>
        <path class="cls-3" d="m85.67,49.4h1.21v.48c.42-.42.9-.63,1.43-.63.61,0,1.08.19,1.42.58.29.33.44.86.44,1.59v3.21h-1.21v-2.92c0-.52-.07-.87-.21-1.07-.14-.2-.39-.3-.76-.3-.4,0-.69.13-.85.4-.17.26-.25.72-.25,1.37v2.52h-1.21v-5.23Z"/>
        <path class="cls-3" d="m95.55,49.4h1.21v5.23h-1.21v-.55c-.5.47-1.03.7-1.61.7-.72,0-1.32-.26-1.79-.78-.47-.53-.7-1.2-.7-2s.23-1.44.7-1.96c.47-.52,1.06-.79,1.76-.79.61,0,1.16.25,1.64.75v-.61Zm-2.87,2.6c0,.5.13.91.4,1.22.28.32.62.48,1.04.48.45,0,.81-.15,1.09-.46.28-.32.41-.72.41-1.21s-.14-.89-.41-1.21c-.28-.31-.63-.47-1.07-.47-.42,0-.76.16-1.04.47-.28.32-.41.71-.41,1.18Z"/>
        <path class="cls-3" d="m99.5,57.47h-1.21v-8.08h1.21v.57c.48-.48,1.02-.71,1.62-.71.72,0,1.31.27,1.78.79.47.53.71,1.19.71,1.99s-.23,1.44-.7,1.96c-.47.52-1.05.78-1.76.78-.61,0-1.16-.25-1.64-.74v3.43Zm2.87-5.43c0-.5-.14-.91-.41-1.22-.28-.32-.62-.48-1.04-.48-.44,0-.8.15-1.08.46-.28.31-.41.71-.41,1.21s.14.9.41,1.21c.27.31.63.47,1.07.47.42,0,.76-.16,1.04-.47.28-.31.42-.71.42-1.18Z"/>
        <path class="cls-3" d="m106.1,57.47h-1.21v-8.08h1.21v.57c.48-.48,1.02-.71,1.62-.71.72,0,1.31.27,1.78.79.47.53.71,1.19.71,1.99s-.23,1.44-.7,1.96c-.47.52-1.05.78-1.76.78-.61,0-1.16-.25-1.64-.74v3.43Zm2.87-5.43c0-.5-.14-.91-.41-1.22-.28-.32-.62-.48-1.04-.48-.44,0-.8.15-1.08.46-.28.31-.41.71-.41,1.21s.14.9.41,1.21c.27.31.63.47,1.07.47.42,0,.76-.16,1.04-.47.28-.31.42-.71.42-1.18Z"/>
        <path class="cls-3" d="m115.34,49.4h1.21v5.23h-1.21v-.55c-.5.47-1.03.7-1.61.7-.72,0-1.32-.26-1.79-.78-.47-.53-.7-1.2-.7-2s.23-1.44.7-1.96c.47-.52,1.06-.79,1.76-.79.61,0,1.16.25,1.64.75v-.61Zm-2.87,2.6c0,.5.13.91.4,1.22.28.32.62.48,1.04.48.45,0,.81-.15,1.09-.46.28-.32.41-.72.41-1.21s-.14-.89-.41-1.21c-.28-.31-.63-.47-1.07-.47-.42,0-.76.16-1.04.47-.28.32-.41.71-.41,1.18Z"/>
        <path class="cls-3" d="m121.64,46.04l.92.69-1.98,2.7c.11-.01.2-.03.27-.03.07,0,.13-.01.18-.01.67,0,1.25.26,1.75.77.49.51.73,1.12.73,1.84,0,.76-.27,1.41-.82,1.96-.54.54-1.19.81-1.95.81s-1.41-.27-1.98-.8c-.55-.53-.83-1.17-.83-1.9,0-.65.27-1.35.81-2.08l2.9-3.94Zm.64,6.03c0-.44-.15-.81-.46-1.12-.31-.31-.68-.46-1.11-.46s-.81.15-1.11.46c-.3.3-.46.67-.46,1.11s.15.8.46,1.11c.3.3.68.46,1.12.46s.8-.15,1.1-.46.46-.67.46-1.09Z"/>
        <path class="cls-3" d="m126.58,54.91l-.92-.68,1.98-2.7c-.11.01-.2.03-.27.03-.07,0-.14,0-.18,0-.67,0-1.25-.26-1.74-.77-.49-.51-.73-1.12-.73-1.84,0-.76.27-1.41.81-1.96s1.2-.82,1.96-.82,1.41.27,1.97.81c.56.53.84,1.16.84,1.89,0,.64-.27,1.34-.82,2.09l-2.89,3.93Zm-.64-6.04c0,.45.15.82.46,1.13.31.31.68.46,1.11.46s.8-.15,1.11-.46.46-.68.46-1.11-.15-.8-.46-1.11-.67-.46-1.11-.46-.8.15-1.1.46-.46.67-.46,1.09Z"/>
      </g>
    </g>
    <rect class="cls-1" width="175.75" height="73.7"/>
  </g>
</svg>