<svg height="40" viewBox="0 0 40 40" width="40" xmlns="http://www.w3.org/2000/svg"><g transform="translate(-6 -6)"><path d="m13.87 46h24.26a7.87 7.87 0 0 0 7.87-7.87v-24.26a7.87 7.87 0 0 0 -7.87-7.87h-24.26a7.87 7.87 0 0 0 -7.87 7.87v24.26a7.87 7.87 0 0 0 7.87 7.87z" fill="#37474f"/><path d="m39.436 18.162a1.43 1.43 0 0 0 -1.51 1.5v3.338h-1.348v-5.873h1.332v.717a1.9 1.9 0 0 1 1.605-.759h.485v1.076zm-3.791 1.9a3.171 3.171 0 0 0 -3.42-3.062 3.3 3.3 0 0 0 -3.5 3.043v.018c0 1.75 1.575 3.073 3.63 3.073a3.812 3.812 0 0 0 2.955-1.254l-.979-.615a2.538 2.538 0 0 1 -1.978.854 2.214 2.214 0 0 1 -2.261-1.681h5.558zm-5.525-.539a2.091 2.091 0 0 1 2.088-1.5 2.06 2.06 0 0 1 2.072 1.5zm-5.669-2.523a3.719 3.719 0 0 0 -2.423.868v-2.868h-1.348v8h1.332v-.745a3.769 3.769 0 0 0 2.442.882 3.379 3.379 0 0 0 3.654-3 3.326 3.326 0 0 0 -3.502-3.137zm-.1 5.1a2.227 2.227 0 0 1 -2.381-2.02 2.219 2.219 0 0 1 2.361-2.043 2.227 2.227 0 0 1 2.383 2.024v.017a2.2 2.2 0 0 1 -2.351 2.022h-.009zm-8.64-.055a2.153 2.153 0 0 0 2.312-2.138v-4.907h1.4v8h-1.381v-.763a3.735 3.735 0 0 1 -2.489.9 3.247 3.247 0 0 1 -3.553-3.16v-4.977h1.423v4.918a2.114 2.114 0 0 0 2.29 2.131z" fill="#fff" transform="translate(0 1.292)"/><path d="m12.126 25h6.553v1.372h-4.779v1.949h4.65v1.326h-4.65v1.981h4.783v1.372h-6.557zm24.6 8.124c2 0 3.132-.821 3.132-1.948 0-.8-.668-1.4-2.067-1.662l-1.479-.259c-.859-.137-1.129-.274-1.129-.547 0-.354.414-.572 1.177-.572.826 0 1.438.19 1.6.844h1.73c-.095-1.231-1.129-2.044-3.226-2.044-1.812 0-3.085.64-3.085 1.881 0 .858.7 1.416 2.211 1.688l1.653.327c.652.109.826.26.826.491 0 .368-.492.6-1.289.6-1 0-1.573-.19-1.795-.844h-1.742c.257 1.229 1.319 2.045 3.482 2.045zm-3.986-1.457h-1.3c-.4 0-.652-.15-.652-.464v-2.779h1.955v-1.334h-1.959v-1.676h-1.742v1.676h-1.325v1.335h1.319v3.161c0 .791.652 1.417 1.829 1.417h1.875zm-5.777-4.577v5.91h-1.737v-.56a3.736 3.736 0 0 1 -2.195.684h-.152a3.359 3.359 0 0 1 -3.538-3.158 3.412 3.412 0 0 1 3.69-3.028 3.74 3.74 0 0 1 2.195.684v-.532zm-3.792 4.74h.022a1.94 1.94 0 0 0 2.059-1.8v-.022a1.975 1.975 0 0 0 -2.126-1.778 1.959 1.959 0 0 0 -2.078 1.819 1.975 1.975 0 0 0 2.126 1.778z" fill="#66bb6a" transform="translate(0 2.726)"/></g></svg>